<?xml version="1.0" encoding="UTF-8"?>
<!-- Created with Inkscape (http://www.inkscape.org/) -->
<svg width="712" height="745.47" version="1.1" viewBox="0 0 188.38 197.24" xmlns="http://www.w3.org/2000/svg" xmlns:cc="http://creativecommons.org/ns#" xmlns:dc="http://purl.org/dc/elements/1.1/" xmlns:rdf="http://www.w3.org/1999/02/22-rdf-syntax-ns#">
 <metadata>
  <rdf:RDF>
   <cc:Work rdf:about="">
    <dc:format>image/svg+xml</dc:format>
    <dc:type rdf:resource="http://purl.org/dc/dcmitype/StillImage"/>
    <dc:title/>
   </cc:Work>
  </rdf:RDF>
 </metadata>
 <g transform="translate(248.87 145.45)">
  <g transform="matrix(4.2598 0 0 4.2598 811.26 -168.82)">
   <rect x="-248.87" y="5.4859" width="44.223" height="46.302" fill="#fff" fill-rule="evenodd"/>
   <rect x="-246.4" y="7.4428" width="39.289" height="32.807" fill="#e63138" fill-rule="evenodd"/>
   <path d="m-214.36 46.512v-3.1746h2.2955v2.1938h2.6338v-2.1938h2.3197v6.349h-2.3197v-2.5813l-2.6217 0.0134-6e-3 1.284-6e-3 1.284h-2.2951zm-5.1869 0.80008v-2.3744h-2.1506v-1.6003h6.6208v1.6003h-2.1747v4.7487h-2.2955zm-5.789-1.2989c0.15746-0.05568 0.267-0.15273 0.32422-0.28729 0.0901-0.21185 0.0334-0.51383-0.11794-0.62899-0.16398-0.12472-0.29444-0.14074-1.2442-0.15279l-0.888-0.01128v1.1438l0.90009-0.0095c0.77062-8e-3 0.91818-0.01588 1.0258-0.05395zm-4.2698 0.4975v-3.1733h2.7365c2.9463 0.01112 2.8989 0.01682 3.3758 0.15653 0.68632 0.20109 1.0634 0.74969 1.0634 1.547 0 0.32343-0.0488 0.55858-0.1714 0.82589-0.12927 0.28187-0.39029 0.56892-0.63375 0.69694l-0.16282 0.08561 0.14007 0.07995c0.20141 0.11495 0.30951 0.20981 0.39357 0.34535 0.13139 0.21186 0.17279 0.44387 0.2174 1.2182 0.041 0.71103 0.12272 1.11 0.25482 1.2438 0.0323 0.03273 0.059 0.12489 0.0592 0.14974h-2.5832l-0.0379-0.13539c-0.0456-0.16345-0.0837-0.52469-0.0849-0.80653-2e-3 -0.56094-0.10891-0.81784-0.38691-0.9335-0.0942-0.03921-0.22111-0.04631-0.97222-0.05436l-0.86385-0.0093v1.9391h-2.3439v-3.1757zm-16.794 0.0011v-3.1745h2.7223l2.2916 3.652 6e-3 -1.826 6e-3 -1.826h2.2227v6.349h-2.5948l-1.2337-1.8512-1.2337-1.8383-6e-3 1.8448-6e-3 1.8448h-2.1744zm12.638 1.6414c0.48244-0.14423 0.79879-0.49022 0.93708-1.0249 0.034-0.13109 0.0424-0.26266 0.0415-0.64232-1e-3 -0.44764-5e-3 -0.49049-0.0662-0.68596-0.21031-0.67444-0.67047-0.99563-1.4308-0.99866-0.36978-0.0015-0.55816 0.03962-0.81504 0.17779-0.32158 0.17297-0.5385 0.48182-0.65046 0.92613-0.0746 0.29595-0.0749 0.91661-6.8e-4 1.2079 0.14679 0.57605 0.50656 0.94629 1.0333 1.0634 0.21063 0.04684 0.76174 0.03331 0.95132-0.02337zm-1.2312 1.672c-0.0465-0.0057-0.17699-0.02233-0.28996-0.03679-1.11-0.14207-1.9568-0.58204-2.4409-1.2683-0.37783-0.53556-0.55555-1.1795-0.55523-2.0117 2.3e-4 -0.6405 0.0874-1.0913 0.30165-1.5614 0.44987-0.98677 1.3149-1.5296 2.7549-1.7287 0.4289-0.0593 1.4217-0.05969 1.8707-7.28e-4 1.6751 0.22006 2.6594 0.99269 2.9635 2.3262 0.15543 0.68163 0.13473 1.4987-0.0542 2.1403-0.29632 1.0063-1.0459 1.6829-2.1891 1.9759-0.53989 0.13838-0.74143 0.16042-1.5397 0.16836-0.40535 0.0041-0.77505 0.0026-0.82157-0.0032z" fill="#014a81" stroke-width=".024973"/>
   <path d="m-215.91 27.394c0 2.1057-1.707 3.8126-3.8126 3.8126-2.1057 3e-6 -3.8126-1.707-3.8126-3.8126s1.707-3.8126 3.8126-3.8126c2.1057 2e-6 3.8126 1.707 3.8126 3.8126zm-14.647 0c0 2.1057-1.707 3.8126-3.8126 3.8126-2.1057-2e-6 -3.8126-1.707-3.8126-3.8126s1.707-3.8126 3.8126-3.8126c2.1057-3e-6 3.8126 1.707 3.8126 3.8126zm9.4113-8.395c0.96768-0.56088 2.095-0.84271 3.2128-0.8032 1.716 0.06066 3.3382 0.86261 4.6775 1.9371 1.3509 1.0838 2.4809 2.4822 3.0711 4.1105 0.62643 1.7282 0.61827 3.646 0.18898 5.4334-0.40357 1.6804-1.179 3.2807-2.3151 4.583-1.4883 1.7061-3.6082 2.8699-5.8586 3.1183-2.2157 0.24462-4.4791-0.39204-6.3784-1.5592-0.84237-0.51766-1.6216-1.1379-2.3151-1.8426-0.94654 1.1528-2.1766 2.071-3.551 2.6507-2.0547 0.8666-4.4168 0.95657-6.5481 0.30068-2.2111-0.68044-4.1752-2.167-5.3788-4.1427-0.81148-1.3321-1.275-2.8636-1.4194-4.4166-0.14445-1.5531 0.0249-3.1275 0.41719-4.6371 0.40055-1.5413 1.0365-3.0202 1.8709-4.3765l5.5378-8.9869h5.9059l-5.5638 8.5192c1.1098-0.62225 2.4068-0.90524 3.675-0.80181 1.6756 0.13667 3.285 0.95978 4.3765 2.2384l6.2474-9.9558h6.1138zm10.254-6.0421c0 0.87326-0.70792 1.5812-1.5812 1.5812-0.87326-6e-6 -1.5812-0.70792-1.5812-1.5812s0.70791-1.5812 1.5812-1.5812c0.87326 0 1.5812 0.70792 1.5812 1.5812zm1.1131 0c0 1.488-1.2063 2.6943-2.6943 2.6943-1.488-1e-6 -2.6943-1.2063-2.6943-2.6943s1.2063-2.6943 2.6943-2.6943c1.488-4e-6 2.6943 1.2063 2.6943 2.6943z" fill="#fff" fill-rule="evenodd"/>
  </g>
 </g>
</svg>
